<mxfile host="app.diagrams.net" agent="Mozilla/5.0 (X11; Linux x86_64; rv:128.0) Gecko/20100101 Firefox/128.0" version="26.0.4">
  <diagram name="Page-1" id="e8Z75jqW2tC2GbVCnlt6">
    <mxGraphModel dx="1250" dy="1064" grid="1" gridSize="10" guides="1" tooltips="1" connect="1" arrows="1" fold="1" page="0" pageScale="1" pageWidth="827" pageHeight="1169" math="0" shadow="0">
      <root>
        <mxCell id="0" />
        <mxCell id="1" parent="0" />
        <mxCell id="nZviZZo1a1goZrP_ZpkB-6" value="Commerce" style="swimlane;fontStyle=1;align=center;verticalAlign=top;childLayout=stackLayout;horizontal=1;startSize=29.818181818181817;horizontalStack=0;resizeParent=1;resizeParentMax=0;resizeLast=0;collapsible=0;marginBottom=0;" vertex="1" parent="1">
          <mxGeometry x="646.5" y="-10" width="248" height="179.8181818181818" as="geometry" />
        </mxCell>
        <mxCell id="nZviZZo1a1goZrP_ZpkB-8" value="integer review_id" style="text;strokeColor=none;fillColor=none;align=left;verticalAlign=top;spacingLeft=4;spacingRight=4;overflow=hidden;rotatable=0;points=[[0,0.5],[1,0.5]];portConstraint=eastwest;" vertex="1" parent="nZviZZo1a1goZrP_ZpkB-6">
          <mxGeometry y="29.818181818181817" width="248" height="30" as="geometry" />
        </mxCell>
        <mxCell id="nZviZZo1a1goZrP_ZpkB-9" value="integer checkin_id" style="text;strokeColor=none;fillColor=none;align=left;verticalAlign=top;spacingLeft=4;spacingRight=4;overflow=hidden;rotatable=0;points=[[0,0.5],[1,0.5]];portConstraint=eastwest;" vertex="1" parent="nZviZZo1a1goZrP_ZpkB-6">
          <mxGeometry y="59.81818181818181" width="248" height="30" as="geometry" />
        </mxCell>
        <mxCell id="nZviZZo1a1goZrP_ZpkB-10" value="integer parking_id" style="text;strokeColor=none;fillColor=none;align=left;verticalAlign=top;spacingLeft=4;spacingRight=4;overflow=hidden;rotatable=0;points=[[0,0.5],[1,0.5]];portConstraint=eastwest;" vertex="1" parent="nZviZZo1a1goZrP_ZpkB-6">
          <mxGeometry y="89.81818181818181" width="248" height="30" as="geometry" />
        </mxCell>
        <mxCell id="nZviZZo1a1goZrP_ZpkB-12" value="integer category_id" style="text;strokeColor=none;fillColor=none;align=left;verticalAlign=top;spacingLeft=4;spacingRight=4;overflow=hidden;rotatable=0;points=[[0,0.5],[1,0.5]];portConstraint=eastwest;" vertex="1" parent="nZviZZo1a1goZrP_ZpkB-6">
          <mxGeometry y="119.81818181818181" width="248" height="30" as="geometry" />
        </mxCell>
        <mxCell id="nZviZZo1a1goZrP_ZpkB-17" value="varchar(22) : commerce_id" style="text;strokeColor=none;fillColor=none;align=left;verticalAlign=top;spacingLeft=4;spacingRight=4;overflow=hidden;rotatable=0;points=[[0,0.5],[1,0.5]];portConstraint=eastwest;" vertex="1" parent="nZviZZo1a1goZrP_ZpkB-6">
          <mxGeometry y="149.8181818181818" width="248" height="30" as="geometry" />
        </mxCell>
        <mxCell id="nZviZZo1a1goZrP_ZpkB-18" value="business_categories" style="swimlane;fontStyle=1;align=center;verticalAlign=top;childLayout=stackLayout;horizontal=1;startSize=40.57142857142857;horizontalStack=0;resizeParent=1;resizeParentMax=0;resizeLast=0;collapsible=0;marginBottom=0;" vertex="1" parent="1">
          <mxGeometry x="150" y="390" width="277" height="122.57142857142857" as="geometry" />
        </mxCell>
        <mxCell id="nZviZZo1a1goZrP_ZpkB-20" value="integer category_id" style="text;strokeColor=none;fillColor=none;align=left;verticalAlign=top;spacingLeft=4;spacingRight=4;overflow=hidden;rotatable=0;points=[[0,0.5],[1,0.5]];portConstraint=eastwest;" vertex="1" parent="nZviZZo1a1goZrP_ZpkB-18">
          <mxGeometry y="40.57142857142857" width="277" height="41" as="geometry" />
        </mxCell>
        <mxCell id="nZviZZo1a1goZrP_ZpkB-21" value="varchar(255) : category" style="text;strokeColor=none;fillColor=none;align=left;verticalAlign=top;spacingLeft=4;spacingRight=4;overflow=hidden;rotatable=0;points=[[0,0.5],[1,0.5]];portConstraint=eastwest;" vertex="1" parent="nZviZZo1a1goZrP_ZpkB-18">
          <mxGeometry y="81.57142857142857" width="277" height="41" as="geometry" />
        </mxCell>
        <mxCell id="nZviZZo1a1goZrP_ZpkB-22" value="amenagement" style="swimlane;fontStyle=1;align=center;verticalAlign=top;childLayout=stackLayout;horizontal=1;startSize=33.142857142857146;horizontalStack=0;resizeParent=1;resizeParentMax=0;resizeLast=0;collapsible=0;marginBottom=0;" vertex="1" parent="1">
          <mxGeometry x="637" y="400" width="267" height="305.1428571428571" as="geometry" />
        </mxCell>
        <mxCell id="nZviZZo1a1goZrP_ZpkB-23" value="integer garage" style="text;strokeColor=none;fillColor=none;align=left;verticalAlign=top;spacingLeft=4;spacingRight=4;overflow=hidden;rotatable=0;points=[[0,0.5],[1,0.5]];portConstraint=eastwest;" vertex="1" parent="nZviZZo1a1goZrP_ZpkB-22">
          <mxGeometry y="33.142857142857146" width="267" height="33" as="geometry" />
        </mxCell>
        <mxCell id="nZviZZo1a1goZrP_ZpkB-24" value="integer street" style="text;strokeColor=none;fillColor=none;align=left;verticalAlign=top;spacingLeft=4;spacingRight=4;overflow=hidden;rotatable=0;points=[[0,0.5],[1,0.5]];portConstraint=eastwest;" vertex="1" parent="nZviZZo1a1goZrP_ZpkB-22">
          <mxGeometry y="66.14285714285714" width="267" height="33" as="geometry" />
        </mxCell>
        <mxCell id="nZviZZo1a1goZrP_ZpkB-25" value="integer validated" style="text;strokeColor=none;fillColor=none;align=left;verticalAlign=top;spacingLeft=4;spacingRight=4;overflow=hidden;rotatable=0;points=[[0,0.5],[1,0.5]];portConstraint=eastwest;" vertex="1" parent="nZviZZo1a1goZrP_ZpkB-22">
          <mxGeometry y="99.14285714285714" width="267" height="33" as="geometry" />
        </mxCell>
        <mxCell id="nZviZZo1a1goZrP_ZpkB-26" value="integer lot" style="text;strokeColor=none;fillColor=none;align=left;verticalAlign=top;spacingLeft=4;spacingRight=4;overflow=hidden;rotatable=0;points=[[0,0.5],[1,0.5]];portConstraint=eastwest;" vertex="1" parent="nZviZZo1a1goZrP_ZpkB-22">
          <mxGeometry y="132.14285714285714" width="267" height="33" as="geometry" />
        </mxCell>
        <mxCell id="nZviZZo1a1goZrP_ZpkB-27" value="integer valet" style="text;strokeColor=none;fillColor=none;align=left;verticalAlign=top;spacingLeft=4;spacingRight=4;overflow=hidden;rotatable=0;points=[[0,0.5],[1,0.5]];portConstraint=eastwest;" vertex="1" parent="nZviZZo1a1goZrP_ZpkB-22">
          <mxGeometry y="165.14285714285714" width="267" height="33" as="geometry" />
        </mxCell>
        <mxCell id="nZviZZo1a1goZrP_ZpkB-4" value="varchar(255) : key" style="text;strokeColor=none;fillColor=none;align=left;verticalAlign=top;spacingLeft=4;spacingRight=4;overflow=hidden;rotatable=0;points=[[0,0.5],[1,0.5]];portConstraint=eastwest;" vertex="1" parent="nZviZZo1a1goZrP_ZpkB-22">
          <mxGeometry y="198.14285714285714" width="267" height="37" as="geometry" />
        </mxCell>
        <mxCell id="nZviZZo1a1goZrP_ZpkB-5" value="varchar(255) : value" style="text;strokeColor=none;fillColor=none;align=left;verticalAlign=top;spacingLeft=4;spacingRight=4;overflow=hidden;rotatable=0;points=[[0,0.5],[1,0.5]];portConstraint=eastwest;" vertex="1" parent="nZviZZo1a1goZrP_ZpkB-22">
          <mxGeometry y="235.14285714285714" width="267" height="37" as="geometry" />
        </mxCell>
        <mxCell id="nZviZZo1a1goZrP_ZpkB-119" value="integerÂ amenagement_id" style="text;strokeColor=none;fillColor=none;align=left;verticalAlign=top;spacingLeft=4;spacingRight=4;overflow=hidden;rotatable=0;points=[[0,0.5],[1,0.5]];portConstraint=eastwest;" vertex="1" parent="nZviZZo1a1goZrP_ZpkB-22">
          <mxGeometry y="272.1428571428571" width="267" height="33" as="geometry" />
        </mxCell>
        <mxCell id="nZviZZo1a1goZrP_ZpkB-30" value="checkin_date" style="swimlane;fontStyle=1;align=center;verticalAlign=top;childLayout=stackLayout;horizontal=1;startSize=45.333333333333336;horizontalStack=0;resizeParent=1;resizeParentMax=0;resizeLast=0;collapsible=0;marginBottom=0;" vertex="1" parent="1">
          <mxGeometry x="1020" y="390" width="253" height="135.33333333333334" as="geometry" />
        </mxCell>
        <mxCell id="nZviZZo1a1goZrP_ZpkB-31" value="datetime date" style="text;strokeColor=none;fillColor=none;align=left;verticalAlign=top;spacingLeft=4;spacingRight=4;overflow=hidden;rotatable=0;points=[[0,0.5],[1,0.5]];portConstraint=eastwest;" vertex="1" parent="nZviZZo1a1goZrP_ZpkB-30">
          <mxGeometry y="45.333333333333336" width="253" height="45" as="geometry" />
        </mxCell>
        <mxCell id="nZviZZo1a1goZrP_ZpkB-33" value="integer checkin_id" style="text;strokeColor=none;fillColor=none;align=left;verticalAlign=top;spacingLeft=4;spacingRight=4;overflow=hidden;rotatable=0;points=[[0,0.5],[1,0.5]];portConstraint=eastwest;" vertex="1" parent="nZviZZo1a1goZrP_ZpkB-30">
          <mxGeometry y="90.33333333333334" width="253" height="45" as="geometry" />
        </mxCell>
        <mxCell id="nZviZZo1a1goZrP_ZpkB-51" value="tip" style="swimlane;fontStyle=1;align=center;verticalAlign=top;childLayout=stackLayout;horizontal=1;startSize=32;horizontalStack=0;resizeParent=1;resizeParentMax=0;resizeLast=0;collapsible=0;marginBottom=0;" vertex="1" parent="1">
          <mxGeometry x="1758" y="468" width="202" height="208" as="geometry" />
        </mxCell>
        <mxCell id="nZviZZo1a1goZrP_ZpkB-52" value="text business_id" style="text;strokeColor=none;fillColor=none;align=left;verticalAlign=top;spacingLeft=4;spacingRight=4;overflow=hidden;rotatable=0;points=[[0,0.5],[1,0.5]];portConstraint=eastwest;" vertex="1" parent="nZviZZo1a1goZrP_ZpkB-51">
          <mxGeometry y="32" width="202" height="32" as="geometry" />
        </mxCell>
        <mxCell id="nZviZZo1a1goZrP_ZpkB-53" value="text compliment_count" style="text;strokeColor=none;fillColor=none;align=left;verticalAlign=top;spacingLeft=4;spacingRight=4;overflow=hidden;rotatable=0;points=[[0,0.5],[1,0.5]];portConstraint=eastwest;" vertex="1" parent="nZviZZo1a1goZrP_ZpkB-51">
          <mxGeometry y="64" width="202" height="32" as="geometry" />
        </mxCell>
        <mxCell id="nZviZZo1a1goZrP_ZpkB-54" value="text date" style="text;strokeColor=none;fillColor=none;align=left;verticalAlign=top;spacingLeft=4;spacingRight=4;overflow=hidden;rotatable=0;points=[[0,0.5],[1,0.5]];portConstraint=eastwest;" vertex="1" parent="nZviZZo1a1goZrP_ZpkB-51">
          <mxGeometry y="96" width="202" height="32" as="geometry" />
        </mxCell>
        <mxCell id="nZviZZo1a1goZrP_ZpkB-55" value="text text" style="text;strokeColor=none;fillColor=none;align=left;verticalAlign=top;spacingLeft=4;spacingRight=4;overflow=hidden;rotatable=0;points=[[0,0.5],[1,0.5]];portConstraint=eastwest;" vertex="1" parent="nZviZZo1a1goZrP_ZpkB-51">
          <mxGeometry y="128" width="202" height="32" as="geometry" />
        </mxCell>
        <mxCell id="nZviZZo1a1goZrP_ZpkB-56" value="text user_id" style="text;strokeColor=none;fillColor=none;align=left;verticalAlign=top;spacingLeft=4;spacingRight=4;overflow=hidden;rotatable=0;points=[[0,0.5],[1,0.5]];portConstraint=eastwest;" vertex="1" parent="nZviZZo1a1goZrP_ZpkB-51">
          <mxGeometry y="160" width="202" height="32" as="geometry" />
        </mxCell>
        <mxCell id="nZviZZo1a1goZrP_ZpkB-57" style="line;strokeWidth=1;fillColor=none;align=left;verticalAlign=middle;spacingTop=-1;spacingLeft=3;spacingRight=3;rotatable=0;labelPosition=right;points=[];portConstraint=eastwest;strokeColor=inherit;" vertex="1" parent="nZviZZo1a1goZrP_ZpkB-51">
          <mxGeometry y="192" width="202" height="16" as="geometry" />
        </mxCell>
        <mxCell id="nZviZZo1a1goZrP_ZpkB-58" value="tips_data" style="swimlane;fontStyle=1;align=center;verticalAlign=top;childLayout=stackLayout;horizontal=1;startSize=32;horizontalStack=0;resizeParent=1;resizeParentMax=0;resizeLast=0;collapsible=0;marginBottom=0;" vertex="1" parent="1">
          <mxGeometry x="2010" y="468" width="227" height="208" as="geometry" />
        </mxCell>
        <mxCell id="nZviZZo1a1goZrP_ZpkB-59" value="text business_id" style="text;strokeColor=none;fillColor=none;align=left;verticalAlign=top;spacingLeft=4;spacingRight=4;overflow=hidden;rotatable=0;points=[[0,0.5],[1,0.5]];portConstraint=eastwest;" vertex="1" parent="nZviZZo1a1goZrP_ZpkB-58">
          <mxGeometry y="32" width="227" height="32" as="geometry" />
        </mxCell>
        <mxCell id="nZviZZo1a1goZrP_ZpkB-60" value="text compliment_count" style="text;strokeColor=none;fillColor=none;align=left;verticalAlign=top;spacingLeft=4;spacingRight=4;overflow=hidden;rotatable=0;points=[[0,0.5],[1,0.5]];portConstraint=eastwest;" vertex="1" parent="nZviZZo1a1goZrP_ZpkB-58">
          <mxGeometry y="64" width="227" height="32" as="geometry" />
        </mxCell>
        <mxCell id="nZviZZo1a1goZrP_ZpkB-61" value="text date" style="text;strokeColor=none;fillColor=none;align=left;verticalAlign=top;spacingLeft=4;spacingRight=4;overflow=hidden;rotatable=0;points=[[0,0.5],[1,0.5]];portConstraint=eastwest;" vertex="1" parent="nZviZZo1a1goZrP_ZpkB-58">
          <mxGeometry y="96" width="227" height="32" as="geometry" />
        </mxCell>
        <mxCell id="nZviZZo1a1goZrP_ZpkB-62" value="text text" style="text;strokeColor=none;fillColor=none;align=left;verticalAlign=top;spacingLeft=4;spacingRight=4;overflow=hidden;rotatable=0;points=[[0,0.5],[1,0.5]];portConstraint=eastwest;" vertex="1" parent="nZviZZo1a1goZrP_ZpkB-58">
          <mxGeometry y="128" width="227" height="32" as="geometry" />
        </mxCell>
        <mxCell id="nZviZZo1a1goZrP_ZpkB-63" value="text user_id" style="text;strokeColor=none;fillColor=none;align=left;verticalAlign=top;spacingLeft=4;spacingRight=4;overflow=hidden;rotatable=0;points=[[0,0.5],[1,0.5]];portConstraint=eastwest;" vertex="1" parent="nZviZZo1a1goZrP_ZpkB-58">
          <mxGeometry y="160" width="227" height="32" as="geometry" />
        </mxCell>
        <mxCell id="nZviZZo1a1goZrP_ZpkB-64" style="line;strokeWidth=1;fillColor=none;align=left;verticalAlign=middle;spacingTop=-1;spacingLeft=3;spacingRight=3;rotatable=0;labelPosition=right;points=[];portConstraint=eastwest;strokeColor=inherit;" vertex="1" parent="nZviZZo1a1goZrP_ZpkB-58">
          <mxGeometry y="192" width="227" height="16" as="geometry" />
        </mxCell>
        <mxCell id="nZviZZo1a1goZrP_ZpkB-66" value="" style="curved=1;startArrow=none;endArrow=open;endSize=12;exitX=0.5;exitY=0;entryX=0;entryY=0.73;rounded=0;" edge="1" parent="1" source="nZviZZo1a1goZrP_ZpkB-18" target="nZviZZo1a1goZrP_ZpkB-6">
          <mxGeometry relative="1" as="geometry">
            <Array as="points">
              <mxPoint x="449" y="393" />
            </Array>
          </mxGeometry>
        </mxCell>
        <mxCell id="nZviZZo1a1goZrP_ZpkB-67" value="" style="curved=1;startArrow=none;endArrow=open;endSize=12;exitX=0.5;exitY=0;entryX=0.5;entryY=1;rounded=0;" edge="1" parent="1" source="nZviZZo1a1goZrP_ZpkB-22" target="nZviZZo1a1goZrP_ZpkB-6">
          <mxGeometry relative="1" as="geometry">
            <Array as="points" />
          </mxGeometry>
        </mxCell>
        <mxCell id="nZviZZo1a1goZrP_ZpkB-68" value="" style="curved=1;startArrow=none;endArrow=open;endSize=12;exitX=0.5;exitY=0;entryX=1;entryY=0.74;rounded=0;" edge="1" parent="1" source="nZviZZo1a1goZrP_ZpkB-30" target="nZviZZo1a1goZrP_ZpkB-6">
          <mxGeometry relative="1" as="geometry">
            <Array as="points">
              <mxPoint x="1081" y="393" />
            </Array>
          </mxGeometry>
        </mxCell>
        <mxCell id="nZviZZo1a1goZrP_ZpkB-79" value="review_id&#xa;" style="swimlane;fontStyle=1;align=center;verticalAlign=top;childLayout=stackLayout;horizontal=1;startSize=28.52173913043478;horizontalStack=0;resizeParent=1;resizeParentMax=0;resizeLast=0;collapsible=0;marginBottom=0;" vertex="1" parent="1">
          <mxGeometry x="150" y="-70" width="215" height="318.52173913043475" as="geometry" />
        </mxCell>
        <mxCell id="nZviZZo1a1goZrP_ZpkB-80" value="integer review_id" style="text;strokeColor=none;fillColor=none;align=left;verticalAlign=top;spacingLeft=4;spacingRight=4;overflow=hidden;rotatable=0;points=[[0,0.5],[1,0.5]];portConstraint=eastwest;" vertex="1" parent="nZviZZo1a1goZrP_ZpkB-79">
          <mxGeometry y="28.52173913043478" width="215" height="29" as="geometry" />
        </mxCell>
        <mxCell id="nZviZZo1a1goZrP_ZpkB-81" value="bigint cool" style="text;strokeColor=none;fillColor=none;align=left;verticalAlign=top;spacingLeft=4;spacingRight=4;overflow=hidden;rotatable=0;points=[[0,0.5],[1,0.5]];portConstraint=eastwest;" vertex="1" parent="nZviZZo1a1goZrP_ZpkB-79">
          <mxGeometry y="57.52173913043478" width="215" height="29" as="geometry" />
        </mxCell>
        <mxCell id="nZviZZo1a1goZrP_ZpkB-82" value="date date" style="text;strokeColor=none;fillColor=none;align=left;verticalAlign=top;spacingLeft=4;spacingRight=4;overflow=hidden;rotatable=0;points=[[0,0.5],[1,0.5]];portConstraint=eastwest;" vertex="1" parent="nZviZZo1a1goZrP_ZpkB-79">
          <mxGeometry y="86.52173913043478" width="215" height="29" as="geometry" />
        </mxCell>
        <mxCell id="nZviZZo1a1goZrP_ZpkB-121" style="edgeStyle=orthogonalEdgeStyle;rounded=0;orthogonalLoop=1;jettySize=auto;html=1;exitX=1;exitY=0.5;exitDx=0;exitDy=0;" edge="1" parent="nZviZZo1a1goZrP_ZpkB-79" source="nZviZZo1a1goZrP_ZpkB-83">
          <mxGeometry relative="1" as="geometry">
            <mxPoint x="490" y="130" as="targetPoint" />
          </mxGeometry>
        </mxCell>
        <mxCell id="nZviZZo1a1goZrP_ZpkB-83" value="bigint funny" style="text;strokeColor=none;fillColor=none;align=left;verticalAlign=top;spacingLeft=4;spacingRight=4;overflow=hidden;rotatable=0;points=[[0,0.5],[1,0.5]];portConstraint=eastwest;" vertex="1" parent="nZviZZo1a1goZrP_ZpkB-79">
          <mxGeometry y="115.52173913043478" width="215" height="29" as="geometry" />
        </mxCell>
        <mxCell id="nZviZZo1a1goZrP_ZpkB-84" value="text review_id" style="text;strokeColor=none;fillColor=none;align=left;verticalAlign=top;spacingLeft=4;spacingRight=4;overflow=hidden;rotatable=0;points=[[0,0.5],[1,0.5]];portConstraint=eastwest;" vertex="1" parent="nZviZZo1a1goZrP_ZpkB-79">
          <mxGeometry y="144.52173913043478" width="215" height="29" as="geometry" />
        </mxCell>
        <mxCell id="nZviZZo1a1goZrP_ZpkB-85" value="double precision stars" style="text;strokeColor=none;fillColor=none;align=left;verticalAlign=top;spacingLeft=4;spacingRight=4;overflow=hidden;rotatable=0;points=[[0,0.5],[1,0.5]];portConstraint=eastwest;" vertex="1" parent="nZviZZo1a1goZrP_ZpkB-79">
          <mxGeometry y="173.52173913043478" width="215" height="29" as="geometry" />
        </mxCell>
        <mxCell id="nZviZZo1a1goZrP_ZpkB-86" value="text text" style="text;strokeColor=none;fillColor=none;align=left;verticalAlign=top;spacingLeft=4;spacingRight=4;overflow=hidden;rotatable=0;points=[[0,0.5],[1,0.5]];portConstraint=eastwest;" vertex="1" parent="nZviZZo1a1goZrP_ZpkB-79">
          <mxGeometry y="202.52173913043478" width="215" height="29" as="geometry" />
        </mxCell>
        <mxCell id="nZviZZo1a1goZrP_ZpkB-87" value="bigint useful" style="text;strokeColor=none;fillColor=none;align=left;verticalAlign=top;spacingLeft=4;spacingRight=4;overflow=hidden;rotatable=0;points=[[0,0.5],[1,0.5]];portConstraint=eastwest;" vertex="1" parent="nZviZZo1a1goZrP_ZpkB-79">
          <mxGeometry y="231.52173913043478" width="215" height="29" as="geometry" />
        </mxCell>
        <mxCell id="nZviZZo1a1goZrP_ZpkB-88" value="text user_id" style="text;strokeColor=none;fillColor=none;align=left;verticalAlign=top;spacingLeft=4;spacingRight=4;overflow=hidden;rotatable=0;points=[[0,0.5],[1,0.5]];portConstraint=eastwest;" vertex="1" parent="nZviZZo1a1goZrP_ZpkB-79">
          <mxGeometry y="260.52173913043475" width="215" height="29" as="geometry" />
        </mxCell>
        <mxCell id="nZviZZo1a1goZrP_ZpkB-89" value="integer spark_partition" style="text;strokeColor=none;fillColor=none;align=left;verticalAlign=top;spacingLeft=4;spacingRight=4;overflow=hidden;rotatable=0;points=[[0,0.5],[1,0.5]];portConstraint=eastwest;" vertex="1" parent="nZviZZo1a1goZrP_ZpkB-79">
          <mxGeometry y="289.52173913043475" width="215" height="29" as="geometry" />
        </mxCell>
      </root>
    </mxGraphModel>
  </diagram>
</mxfile>
